<svg xmlns="http://www.w3.org/2000/svg" viewBox="0 0 640 800">
  <defs><linearGradient id="bg" x1="0" y1="0" x2="0" y2="1"><stop stop-color="#2b342f"/><stop offset="1" stop-color="#101414"/></linearGradient></defs>
  <rect width="640" height="800" fill="url(#bg)"/><circle cx="500" cy="150" r="90" fill="#d6bd80" opacity=".13"/>
  <path d="M90 700V310l230-165 230 165v390" fill="#151b1a" stroke="#7f8b83" stroke-width="8"/><path d="M65 320 320 125l255 195" fill="none" stroke="#bca46c" stroke-width="12"/><rect x="180" y="360" width="280" height="340" rx="4" fill="#202824" stroke="#68756e" stroke-width="7"/><rect x="220" y="465" width="80" height="110" fill="#d6bd80" opacity=".24" stroke="#bca46c" stroke-width="5"/><rect x="340" y="465" width="80" height="110" fill="#d6bd80" opacity=".24" stroke="#bca46c" stroke-width="5"/><rect x="270" y="585" width="100" height="115" fill="#0d1111" stroke="#68756e" stroke-width="5"/><rect x="190" y="335" width="260" height="75" rx="8" fill="#0b0f0f" stroke="#bca46c" stroke-width="4"/><text x="320" y="373" text-anchor="middle" fill="#dfca95" font-family="Georgia" font-size="24">POÇÕES &amp; SOLUÇÕES</text><text x="320" y="397" text-anchor="middle" fill="#8e998f" font-family="Georgia" font-size="14">DESDE 1867</text>
  <g fill="#637267"><circle cx="110" cy="650" r="35"/><circle cx="145" cy="670" r="42"/><circle cx="520" cy="650" r="42"/><circle cx="555" cy="675" r="35"/></g><path d="M30 700h580" stroke="#839087" stroke-width="8"/></svg>
